<?xml version="1.0" standalone="no"?>
<svg xmlns="http://www.w3.org/2000/svg" version="1.1" width="210" height="210">
	<!-- Created with https://api.qrserver.com (QR Code API, see goQR.me/api for information) -->
	<title>QR Code</title>
	<desc>tel:+15613003697</desc>
	<rect style="fill:rgb(255, 255, 255);fill-opacity:1" x="0" y="0" width="210" height="210" />
	<g id="elements">
		<path style="fill:rgb(0, 0, 0)" d="M 0,0 l 10,0 0,10 -10,0 z M 10,0 l 10,0 0,10 -10,0 z M 20,0 l 10,0 0,10 -10,0 z M 30,0 l 10,0 0,10 -10,0 z M 40,0 l 10,0 0,10 -10,0 z M 50,0 l 10,0 0,10 -10,0 z M 60,0 l 10,0 0,10 -10,0 z M 100,0 l 10,0 0,10 -10,0 z M 110,0 l 10,0 0,10 -10,0 z M 120,0 l 10,0 0,10 -10,0 z M 140,0 l 10,0 0,10 -10,0 z M 150,0 l 10,0 0,10 -10,0 z M 160,0 l 10,0 0,10 -10,0 z M 170,0 l 10,0 0,10 -10,0 z M 180,0 l 10,0 0,10 -10,0 z M 190,0 l 10,0 0,10 -10,0 z M 200,0 l 10,0 0,10 -10,0 z M 0,10 l 10,0 0,10 -10,0 z M 60,10 l 10,0 0,10 -10,0 z M 80,10 l 10,0 0,10 -10,0 z M 90,10 l 10,0 0,10 -10,0 z M 100,10 l 10,0 0,10 -10,0 z M 120,10 l 10,0 0,10 -10,0 z M 140,10 l 10,0 0,10 -10,0 z M 200,10 l 10,0 0,10 -10,0 z M 0,20 l 10,0 0,10 -10,0 z M 20,20 l 10,0 0,10 -10,0 z M 30,20 l 10,0 0,10 -10,0 z M 40,20 l 10,0 0,10 -10,0 z M 60,20 l 10,0 0,10 -10,0 z M 100,20 l 10,0 0,10 -10,0 z M 110,20 l 10,0 0,10 -10,0 z M 120,20 l 10,0 0,10 -10,0 z M 140,20 l 10,0 0,10 -10,0 z M 160,20 l 10,0 0,10 -10,0 z M 170,20 l 10,0 0,10 -10,0 z M 180,20 l 10,0 0,10 -10,0 z M 200,20 l 10,0 0,10 -10,0 z M 0,30 l 10,0 0,10 -10,0 z M 20,30 l 10,0 0,10 -10,0 z M 30,30 l 10,0 0,10 -10,0 z M 40,30 l 10,0 0,10 -10,0 z M 60,30 l 10,0 0,10 -10,0 z M 80,30 l 10,0 0,10 -10,0 z M 90,30 l 10,0 0,10 -10,0 z M 120,30 l 10,0 0,10 -10,0 z M 140,30 l 10,0 0,10 -10,0 z M 160,30 l 10,0 0,10 -10,0 z M 170,30 l 10,0 0,10 -10,0 z M 180,30 l 10,0 0,10 -10,0 z M 200,30 l 10,0 0,10 -10,0 z M 0,40 l 10,0 0,10 -10,0 z M 20,40 l 10,0 0,10 -10,0 z M 30,40 l 10,0 0,10 -10,0 z M 40,40 l 10,0 0,10 -10,0 z M 60,40 l 10,0 0,10 -10,0 z M 90,40 l 10,0 0,10 -10,0 z M 120,40 l 10,0 0,10 -10,0 z M 140,40 l 10,0 0,10 -10,0 z M 160,40 l 10,0 0,10 -10,0 z M 170,40 l 10,0 0,10 -10,0 z M 180,40 l 10,0 0,10 -10,0 z M 200,40 l 10,0 0,10 -10,0 z M 0,50 l 10,0 0,10 -10,0 z M 60,50 l 10,0 0,10 -10,0 z M 80,50 l 10,0 0,10 -10,0 z M 110,50 l 10,0 0,10 -10,0 z M 140,50 l 10,0 0,10 -10,0 z M 200,50 l 10,0 0,10 -10,0 z M 0,60 l 10,0 0,10 -10,0 z M 10,60 l 10,0 0,10 -10,0 z M 20,60 l 10,0 0,10 -10,0 z M 30,60 l 10,0 0,10 -10,0 z M 40,60 l 10,0 0,10 -10,0 z M 50,60 l 10,0 0,10 -10,0 z M 60,60 l 10,0 0,10 -10,0 z M 80,60 l 10,0 0,10 -10,0 z M 100,60 l 10,0 0,10 -10,0 z M 120,60 l 10,0 0,10 -10,0 z M 140,60 l 10,0 0,10 -10,0 z M 150,60 l 10,0 0,10 -10,0 z M 160,60 l 10,0 0,10 -10,0 z M 170,60 l 10,0 0,10 -10,0 z M 180,60 l 10,0 0,10 -10,0 z M 190,60 l 10,0 0,10 -10,0 z M 200,60 l 10,0 0,10 -10,0 z M 90,70 l 10,0 0,10 -10,0 z M 0,80 l 10,0 0,10 -10,0 z M 10,80 l 10,0 0,10 -10,0 z M 20,80 l 10,0 0,10 -10,0 z M 30,80 l 10,0 0,10 -10,0 z M 40,80 l 10,0 0,10 -10,0 z M 60,80 l 10,0 0,10 -10,0 z M 70,80 l 10,0 0,10 -10,0 z M 80,80 l 10,0 0,10 -10,0 z M 110,80 l 10,0 0,10 -10,0 z M 130,80 l 10,0 0,10 -10,0 z M 150,80 l 10,0 0,10 -10,0 z M 170,80 l 10,0 0,10 -10,0 z M 190,80 l 10,0 0,10 -10,0 z M 0,90 l 10,0 0,10 -10,0 z M 10,90 l 10,0 0,10 -10,0 z M 20,90 l 10,0 0,10 -10,0 z M 30,90 l 10,0 0,10 -10,0 z M 70,90 l 10,0 0,10 -10,0 z M 90,90 l 10,0 0,10 -10,0 z M 120,90 l 10,0 0,10 -10,0 z M 130,90 l 10,0 0,10 -10,0 z M 140,90 l 10,0 0,10 -10,0 z M 150,90 l 10,0 0,10 -10,0 z M 160,90 l 10,0 0,10 -10,0 z M 170,90 l 10,0 0,10 -10,0 z M 180,90 l 10,0 0,10 -10,0 z M 200,90 l 10,0 0,10 -10,0 z M 10,100 l 10,0 0,10 -10,0 z M 20,100 l 10,0 0,10 -10,0 z M 30,100 l 10,0 0,10 -10,0 z M 60,100 l 10,0 0,10 -10,0 z M 70,100 l 10,0 0,10 -10,0 z M 90,100 l 10,0 0,10 -10,0 z M 100,100 l 10,0 0,10 -10,0 z M 120,100 l 10,0 0,10 -10,0 z M 150,100 l 10,0 0,10 -10,0 z M 170,100 l 10,0 0,10 -10,0 z M 180,100 l 10,0 0,10 -10,0 z M 190,100 l 10,0 0,10 -10,0 z M 0,110 l 10,0 0,10 -10,0 z M 40,110 l 10,0 0,10 -10,0 z M 50,110 l 10,0 0,10 -10,0 z M 80,110 l 10,0 0,10 -10,0 z M 100,110 l 10,0 0,10 -10,0 z M 120,110 l 10,0 0,10 -10,0 z M 140,110 l 10,0 0,10 -10,0 z M 150,110 l 10,0 0,10 -10,0 z M 170,110 l 10,0 0,10 -10,0 z M 180,110 l 10,0 0,10 -10,0 z M 0,120 l 10,0 0,10 -10,0 z M 40,120 l 10,0 0,10 -10,0 z M 50,120 l 10,0 0,10 -10,0 z M 60,120 l 10,0 0,10 -10,0 z M 70,120 l 10,0 0,10 -10,0 z M 120,120 l 10,0 0,10 -10,0 z M 130,120 l 10,0 0,10 -10,0 z M 150,120 l 10,0 0,10 -10,0 z M 190,120 l 10,0 0,10 -10,0 z M 80,130 l 10,0 0,10 -10,0 z M 100,130 l 10,0 0,10 -10,0 z M 130,130 l 10,0 0,10 -10,0 z M 140,130 l 10,0 0,10 -10,0 z M 170,130 l 10,0 0,10 -10,0 z M 190,130 l 10,0 0,10 -10,0 z M 200,130 l 10,0 0,10 -10,0 z M 0,140 l 10,0 0,10 -10,0 z M 10,140 l 10,0 0,10 -10,0 z M 20,140 l 10,0 0,10 -10,0 z M 30,140 l 10,0 0,10 -10,0 z M 40,140 l 10,0 0,10 -10,0 z M 50,140 l 10,0 0,10 -10,0 z M 60,140 l 10,0 0,10 -10,0 z M 80,140 l 10,0 0,10 -10,0 z M 90,140 l 10,0 0,10 -10,0 z M 100,140 l 10,0 0,10 -10,0 z M 120,140 l 10,0 0,10 -10,0 z M 150,140 l 10,0 0,10 -10,0 z M 180,140 l 10,0 0,10 -10,0 z M 190,140 l 10,0 0,10 -10,0 z M 0,150 l 10,0 0,10 -10,0 z M 60,150 l 10,0 0,10 -10,0 z M 90,150 l 10,0 0,10 -10,0 z M 100,150 l 10,0 0,10 -10,0 z M 120,150 l 10,0 0,10 -10,0 z M 150,150 l 10,0 0,10 -10,0 z M 180,150 l 10,0 0,10 -10,0 z M 190,150 l 10,0 0,10 -10,0 z M 200,150 l 10,0 0,10 -10,0 z M 0,160 l 10,0 0,10 -10,0 z M 20,160 l 10,0 0,10 -10,0 z M 30,160 l 10,0 0,10 -10,0 z M 40,160 l 10,0 0,10 -10,0 z M 60,160 l 10,0 0,10 -10,0 z M 80,160 l 10,0 0,10 -10,0 z M 90,160 l 10,0 0,10 -10,0 z M 110,160 l 10,0 0,10 -10,0 z M 140,160 l 10,0 0,10 -10,0 z M 0,170 l 10,0 0,10 -10,0 z M 20,170 l 10,0 0,10 -10,0 z M 30,170 l 10,0 0,10 -10,0 z M 40,170 l 10,0 0,10 -10,0 z M 60,170 l 10,0 0,10 -10,0 z M 80,170 l 10,0 0,10 -10,0 z M 100,170 l 10,0 0,10 -10,0 z M 120,170 l 10,0 0,10 -10,0 z M 150,170 l 10,0 0,10 -10,0 z M 160,170 l 10,0 0,10 -10,0 z M 180,170 l 10,0 0,10 -10,0 z M 0,180 l 10,0 0,10 -10,0 z M 20,180 l 10,0 0,10 -10,0 z M 30,180 l 10,0 0,10 -10,0 z M 40,180 l 10,0 0,10 -10,0 z M 60,180 l 10,0 0,10 -10,0 z M 80,180 l 10,0 0,10 -10,0 z M 90,180 l 10,0 0,10 -10,0 z M 110,180 l 10,0 0,10 -10,0 z M 120,180 l 10,0 0,10 -10,0 z M 160,180 l 10,0 0,10 -10,0 z M 180,180 l 10,0 0,10 -10,0 z M 0,190 l 10,0 0,10 -10,0 z M 60,190 l 10,0 0,10 -10,0 z M 80,190 l 10,0 0,10 -10,0 z M 140,190 l 10,0 0,10 -10,0 z M 160,190 l 10,0 0,10 -10,0 z M 180,190 l 10,0 0,10 -10,0 z M 0,200 l 10,0 0,10 -10,0 z M 10,200 l 10,0 0,10 -10,0 z M 20,200 l 10,0 0,10 -10,0 z M 30,200 l 10,0 0,10 -10,0 z M 40,200 l 10,0 0,10 -10,0 z M 50,200 l 10,0 0,10 -10,0 z M 60,200 l 10,0 0,10 -10,0 z M 80,200 l 10,0 0,10 -10,0 z M 90,200 l 10,0 0,10 -10,0 z M 100,200 l 10,0 0,10 -10,0 z M 120,200 l 10,0 0,10 -10,0 z M 170,200 l 10,0 0,10 -10,0 z M 180,200 l 10,0 0,10 -10,0 z M 190,200 l 10,0 0,10 -10,0 z " />
	</g>
</svg>
